<svg width="20" height="19" viewBox="0 0 20 19" fill="none" xmlns="http://www.w3.org/2000/svg">
<path fill-rule="evenodd" clip-rule="evenodd" d="M10 3.17963L9.28576 2.45075C8.40733 1.55432 7.18597 1 5.83333 1C3.16396 1 1 3.16396 1 5.83333C1 7.35301 1.70008 8.84472 2.80591 9.85139L2.84768 9.88941L2.8849 9.9319L9.54191 17.5303L16.6206 10.3241L16.6794 10.2642L16.7473 10.215C18.1015 9.2342 19 7.55536 19 5.83333C19 3.16396 16.836 1 14.1667 1C12.814 1 11.5927 1.55432 10.7142 2.45075L10 3.17963ZM10.2027 18.2846L9.5 19L8.83917 18.2457L2.13273 10.5909C0.830575 9.40547 0 7.65014 0 5.83333C0 2.61167 2.61167 0 5.83333 0C7.37993 0 8.78594 0.601883 9.82993 1.58419C9.88774 1.63859 9.94444 1.69416 10 1.75085C10.0556 1.69416 10.1123 1.63859 10.1701 1.58419C11.2141 0.601883 12.6201 0 14.1667 0C17.3883 0 20 2.61167 20 5.83333C20 7.88733 18.9384 9.86275 17.334 11.0249L10.2027 18.2846Z" fill="black"/>
</svg>
